<svg id="_x32_" xmlns="http://www.w3.org/2000/svg" viewBox="0 0 512 512"><style>.st0{fill:#000}</style><path class="st0" d="M257.661 85.061c22.717 0 41.107-18.399 41.107-41.087 0-22.698-18.39-41.088-41.107-41.088-22.688 0-41.067 18.39-41.067 41.088 0 22.688 18.38 41.087 41.067 41.087zm.842 93.216h55.545s13.3-28.867-1.376-54.466c-8.308-14.457-27.778-23.272-54.169-23.272-26.421 0-45.861 8.814-54.179 23.272-14.706 25.599-1.366 54.466-1.366 54.466h55.545zM60.246 381.495c22.727 0 41.107-18.38 41.107-41.088 0-22.698-18.38-41.078-41.107-41.078-22.717 0-41.097 18.38-41.097 41.078.001 22.709 18.381 41.088 41.097 41.088zm.842 15.488c-26.43 0-45.87 8.813-54.188 23.242-14.696 25.628-1.347 54.485-1.347 54.485h111.061s13.339-28.857-1.357-54.485c-8.308-14.429-27.768-23.242-54.169-23.242zm347.9-56.575c0 22.708 18.409 41.088 41.097 41.088 22.717 0 41.107-18.38 41.107-41.088 0-22.698-18.39-41.078-41.107-41.078-22.688 0-41.097 18.38-41.097 41.078zm96.097 79.817c-8.298-14.429-27.748-23.242-54.159-23.242-26.421 0-45.88 8.813-54.179 23.242-14.696 25.628-1.357 54.485-1.357 54.485h111.062s13.349-28.856-1.367-54.485zm-309.387 10.527l-7.685 37.72c38.84 10.834 76.53 6.893 76.53 6.893l-3.149 33.749 65.082-77.638c-70.182 15.17-130.778-.724-130.778-.724zm265.498-188.284c-10.041-39.058-32.313-69.727-32.313-69.727l30.808-14.141-99.782-17.548c48.237 53.188 64.765 113.616 64.765 113.616l36.522-12.2zM81.944 187.309l-27.649-19.608 34.7 95.177c21.944-68.36 66.013-112.883 66.013-112.883l-28.828-25.52c-28.817 28.213-44.236 62.834-44.236 62.834z"/></svg>