<svg id="_x32_" xmlns="http://www.w3.org/2000/svg" width="512" height="512" viewBox="0 0 512 512"><style>.st0{fill:#000}</style><path class="st0" d="M465.75 336.531l-33.563-71.141c.094-2.125.156-4.25.156-6.391 0-89.453-72.5-161.969-161.969-161.969-89.438 0-161.938 72.516-161.938 161.969 0 50.281 22.906 95.219 58.875 124.938v57.25a13.89 13.89 0 0 0 8.5 12.797l134.125 56.906c4.281 1.828 9.219 1.375 13.125-1.203a13.927 13.927 0 0 0 6.219-11.594v-48.5c0-7.688 6.219-13.922 13.906-13.922h68.688c7.688 0 13.938-6.234 13.938-13.922v-41.813a13.952 13.952 0 0 1 7.813-12.531l25.625-12.422c6.844-3.327 9.75-11.561 6.5-18.452zm-194.187 60.907a18.352 18.352 0 0 1-16.156-9.625h32.281c-3.094 5.734-9.157 9.625-16.125 9.625zm32.687-35.657a7.167 7.167 0 0 1-3.156 5.938 7.117 7.117 0 0 1 3.156 5.922c0 3.953-3.219 7.172-7.188 7.172h-51.375c-3.969 0-7.156-3.219-7.156-7.172a7.167 7.167 0 0 1 3.125-5.922 7.218 7.218 0 0 1-3.125-5.938 7.147 7.147 0 0 1 3.094-5.891 7.147 7.147 0 0 1-3.094-5.891c0-3.969 3.188-7.188 7.156-7.188h51.375a7.19 7.19 0 0 1 7.188 7.188 7.147 7.147 0 0 1-3.094 5.891 7.15 7.15 0 0 1 3.094 5.891zm8.844-59.109c-11.969 7.922-13.031 13.813-13.031 28.563h-57.344c0-14.75-1.094-20.641-13.031-28.563-20.531-13.547-34.063-36.813-34.063-63.234 0-41.828 33.938-75.734 75.75-75.734 41.844 0 75.75 33.906 75.75 75.734 0 26.421-13.531 49.687-34.031 63.234zM258.563 0h23.688v53.844h-23.688zm-80.469 75.406L157.563 87.25l-26.938-46.641 20.531-11.828zm-79.438 70.75l-11.843 20.532-46.657-26.938 11.875-20.516zm-33.406 101v23.688H11.375l.031-23.688zm423.531-127.922l11.844 20.516L454 166.656l-11.844-20.515zm-99.156-90.453l20.531 11.844-26.937 46.625-20.5-11.859z"/></svg>