<svg id="_x32_" xmlns="http://www.w3.org/2000/svg" viewBox="0 0 512 512"><style>.st0{fill:#000}</style><path class="st0" d="M283.276 454.904c-4.739 3.858-9.502 6.888-14.295 9.177a205.67 205.67 0 0 1-9.827.796v-38.201a1130.629 1130.629 0 0 1-23.751-20.024v58.232c-3.293-.2-6.571-.456-9.818-.804-4.794-2.289-9.564-5.32-14.303-9.177-15.447-12.572-29.905-33.794-40.992-61.108h50.486a1288.921 1288.921 0 0 1-25.83-23.75h-32.959c-3.936-13.09-7.104-27.207-9.517-42.013a1351.884 1351.884 0 0 1-27.331-29.139c1.987 25.281 6.061 49.264 12.13 71.152H76.602c-16.986-27.454-27.516-59.276-29.511-93.464h58.24c-6.881-7.948-13.577-15.873-20.017-23.751H47.092c.819-14.009 3.147-27.586 6.68-40.66-8.064-11.001-15.626-21.84-22.599-32.456a231.471 231.471 0 0 0-16.127 84.999c.007 128.262 103.963 232.21 232.226 232.218 30.005 0 58.658-5.759 84.982-16.119-14.14-9.301-28.691-19.638-43.488-30.84-1.818 1.754-3.642 3.425-5.49 4.932zm-177.82-48.374c-4.067-4.067-7.933-8.335-11.636-12.734h51.158c3.811 10.391 8.002 20.287 12.694 29.379 5.528 10.685 11.652 20.403 18.339 29.016a200.751 200.751 0 0 1-70.555-45.661zM78.442 105.348c5.072 9.084 10.839 18.548 17.187 28.296 3.17-3.68 6.386-7.314 9.826-10.754 19.908-19.893 43.945-35.58 70.71-45.731-12.44 15.973-22.9 35.788-31.226 58.457H96.89c5.086 7.746 10.568 15.679 16.374 23.75h24.068c-2.188 7.878-4.067 16.074-5.76 24.454a985.941 985.941 0 0 0 19.947 24.787c2.498-17.458 6.007-34.042 10.585-49.242h73.3v93.464h-45.12a1213.2 1213.2 0 0 0 22.545 23.751h22.575v22.576a1210.152 1210.152 0 0 0 23.751 22.544v-45.12h87.751c-.974 34.095-6.146 65.918-14.442 93.464h-17.388c11.412 9.192 22.676 17.844 33.694 25.876.271-.727.587-1.392.858-2.126h51.112c-3.711 4.399-7.569 8.667-11.636 12.734-3.433 3.432-7.036 6.695-10.716 9.864 9.734 6.34 19.181 12.092 28.243 17.164 44.849-42.336 72.883-102.301 72.883-168.844-.009-128.261-103.972-232.224-232.242-232.232-66.544.008-126.493 28.034-168.83 72.868zm339.514 264.698h-60.73c7.84-28.259 12.587-59.88 13.507-93.464h76.734c-1.995 34.188-12.525 66.009-29.511 93.464zm-.016-210.68c16.994 27.454 27.524 59.284 29.526 93.464h-76.811c-.928-33.554-5.535-65.222-13.375-93.464h60.66zm-28.846-36.476c4.067 4.067 7.925 8.327 11.628 12.726H349.58c-3.811-10.383-8.01-20.279-12.695-29.371-5.528-10.677-11.651-20.395-18.331-29.016 26.696 10.151 50.672 25.815 70.54 45.661zm-129.94-58.356c3.301.201 6.58.456 9.834.804 4.794 2.281 9.548 5.312 14.288 9.169 15.447 12.564 29.897 33.794 40.984 61.108h-65.106V64.534zm0 94.832h73.409c8.296 27.539 13.437 59.4 14.419 93.464h-87.828v-93.464zm-47.872-84.859c4.739-3.858 9.494-6.888 14.288-9.177 3.254-.348 6.533-.603 9.833-.804v71.09h-64.982c2.621-6.472 5.374-12.718 8.35-18.47 9.541-18.494 20.767-33.044 32.511-42.639z"/><path class="st0" d="M503.055 424.249c-4.809-12.966-11.489-26.982-19.668-41.842a265.268 265.268 0 0 1-18.981 32.062c3.58 7.399 6.58 14.357 8.953 20.774 4.832 12.95 7.012 23.75 6.973 30.972 0 3.425-.456 5.999-1.052 7.732-.602 1.739-1.236 2.644-1.963 3.394-.735.711-1.632 1.337-3.379 1.948-1.724.587-4.298 1.043-7.724 1.043-6.819.031-16.838-1.894-28.83-6.185-12.014-4.26-26.031-10.778-41.408-19.328-52.72-29.302-121.196-82.509-188.714-150.073-67.564-67.517-120.771-135.994-150.081-188.722-8.55-15.378-15.06-29.387-19.328-41.402-4.283-11.991-6.216-22.01-6.185-28.83 0-3.433.464-6.007 1.052-7.724.603-1.747 1.23-2.636 1.948-3.378.758-.734 1.654-1.369 3.402-1.971 1.724-.588 4.298-1.052 7.739-1.052 7.213-.038 18.014 2.142 30.941 6.959 6.44 2.381 13.43 5.396 20.868 8.983a264.577 264.577 0 0 1 32.046-18.98c-14.891-8.204-28.938-14.891-41.927-19.7-15.2-5.59-29-8.884-41.927-8.93-6.148.009-12.148.782-17.9 2.723-5.736 1.932-11.211 5.133-15.64 9.586-4.438 4.414-7.631 9.881-9.549 15.61C.781 33.662.008 39.654 0 45.793c.039 12.216 2.984 25.196 8.017 39.43 5.056 14.218 12.3 29.65 21.493 46.195 31.497 56.523 86.112 126.438 155.361 195.718C254.152 396.386 324.067 451 380.582 482.498c16.553 9.192 31.985 16.436 46.203 21.493 14.233 5.026 27.214 7.971 39.429 8.01 6.139 0 12.131-.781 17.876-2.714 5.721-1.924 11.187-5.11 15.609-9.548 4.454-4.438 7.654-9.912 9.58-15.633 1.94-5.752 2.714-11.752 2.721-17.89-.046-12.943-3.34-26.751-8.945-41.967z"/></svg>